<svg width="101" height="96" viewBox="0 0 101 96" fill="none" xmlns="http://www.w3.org/2000/svg">
<path fill-rule="evenodd" clip-rule="evenodd" d="M82.6689 83.5717C76.014 81.8037 69.0259 80.7427 62.371 79.6816L56.7134 82.8637C65.3669 83.2188 74.0174 84.2788 81.6706 86.0478C84.3334 86.4008 84.3334 83.9258 82.6689 83.5717Z" fill="#589775"/>
<path fill-rule="evenodd" clip-rule="evenodd" d="M73.3531 33.7044C91.9875 30.5213 101.638 35.4724 100.307 46.0838C98.6434 59.8772 75.0176 79.3277 47.3986 89.5861C19.7796 99.8435 -1.5175 97.0123 0.146964 83.5729C0.812162 76.4997 7.13498 68.0114 17.1179 59.8772L17.7821 63.0593C10.795 68.7174 6.80189 74.3766 6.4688 79.3277C5.1384 90.2931 18.4482 95.5983 44.4028 86.049C70.3592 76.4987 97.313 56.3401 98.6424 45.3757C99.6427 37.5955 91.9875 33.7044 76.0149 36.5345L73.3531 33.7044Z" fill="#3382C3"/>
<path fill-rule="evenodd" clip-rule="evenodd" d="M89.6577 45.0232C84.9984 32.9978 53.0532 0.813856 48.0617 0.45983C45.0678 0.106849 37.4136 6.82603 29.4273 15.3143L29.0952 27.3397L50.3914 7.18006C61.7047 19.9125 73.0199 36.535 84.0011 46.4383C85.6646 48.2053 90.656 47.1453 89.6577 45.0232Z" fill="#0C0E0F"/>
<path fill-rule="evenodd" clip-rule="evenodd" d="M16.4507 14.2536C18.7804 12.8385 24.4371 10.7175 30.0947 10.3624C22.7736 6.47229 15.1203 4.70425 9.4637 7.1793C6.80193 8.59436 8.79752 19.5587 11.4593 35.1202C8.13232 39.3633 5.46957 42.5474 4.47226 43.9615C2.47568 46.4376 7.79923 48.5596 12.7907 42.9004C14.4542 51.7417 16.1186 61.645 17.45 71.5483C17.7821 74.3774 19.4466 74.3774 21.4422 75.0855C18.4473 17.7896 13.4559 16.0216 16.4507 14.2536Z" fill="#0C0E0F"/>
<path fill-rule="evenodd" clip-rule="evenodd" d="M45.0677 82.5135C48.3957 81.4525 51.3905 80.0374 54.7175 78.6234C38.4128 76.5003 23.7705 76.8554 15.4521 77.5603C14.1217 77.9154 11.1259 82.1595 16.7825 83.2205C18.7791 83.5746 30.7586 82.5135 45.0677 82.5135Z" fill="#589775"/>
<path d="M45.6731 57.399C40.0444 57.927 38.7905 78.9189 38.2384 71.5466C37.6862 64.1743 39.7787 54.3786 45.4074 53.8506C51.036 53.3227 53.444 64.1743 53.9961 71.5466C47.1425 81.0377 51.6463 54.932 45.6731 57.399Z" fill="#0C0E0F"/>
<path d="M70.3727 62.0049C69.5197 69.7188 71.5469 72.8355 69.2108 72.5119C66.8747 72.1884 65.6724 65.6728 66.5254 57.9589C67.3783 50.245 69.9636 44.254 72.2997 44.5775C74.6359 44.901 71.2256 54.2911 70.3727 62.0049Z" fill="#0C0E0F"/>
</svg>
